<svg width="201" height="86" viewBox="0 0 201 86" fill="none" xmlns="http://www.w3.org/2000/svg">
<rect width="201" height="86" rx="17" fill="white"/>
<path d="M132.942 33.9392C132.942 32.8714 131.843 32.1579 131.017 31.6971C130.66 31.4981 130.224 31.3727 129.838 31.227C129.366 31.0484 128.834 30.9652 128.341 30.8553C127.826 30.7403 127.24 30.7399 126.713 30.7244C126.196 30.7088 125.701 30.7233 125.19 30.8161C124.705 30.9049 124.247 31.0484 123.834 31.3247C123.375 31.6316 123.278 32.0895 123.005 32.5337C122.926 32.3307 122.623 32.2241 122.485 32.0662C122.18 31.7178 121.702 31.4955 121.295 31.2917C120.528 30.9082 119.699 30.7747 118.847 30.7292C118.626 30.7177 118.405 30.7063 118.184 30.7063C118.137 30.7063 118.203 30.3837 118.208 30.3549C118.291 29.9029 118.272 29.4206 118.095 28.9931C117.926 28.5848 117.632 28.2212 117.249 27.9967C116.767 27.7134 116.332 27.7296 115.787 27.7296C116.18 26.7558 116.332 25.4221 115.477 24.6539C115.108 24.3222 114.681 24.034 114.171 24.0037C113.562 23.9678 113.12 24.1968 112.603 24.4771C111.485 25.0833 110.355 25.7768 109.326 26.5232C108.851 26.8679 108.356 27.1834 107.891 27.5418C107.453 27.8787 106.936 28.1491 106.56 28.5563C106.391 28.7355 106.26 28.9461 106.173 29.1762C106.136 29.2768 106.103 29.627 105.925 29.549C105.418 29.3267 104.823 29.2461 104.273 29.2176C103.172 29.1603 101.976 29.4262 100.949 29.8179C99.922 30.2103 98.9278 30.91 98.1866 31.7193C97.9496 31.9782 97.782 32.2822 97.5523 32.5444C97.4255 32.6891 97.3752 32.5836 97.2975 32.5341C97.176 32.4578 97.0508 32.3874 96.9225 32.3233C96.8126 32.2685 96.611 32.1361 96.489 32.1361C96.2919 32.1361 96.1003 31.9486 95.8784 31.9486C95.5492 31.9486 95.2618 31.855 94.8735 31.855C94.1345 31.855 93.5309 31.9098 92.9857 32.1128C92.8359 32.1687 92.6658 32.2663 92.5171 32.3236C92.4017 32.368 92.2001 32.5112 92.0951 32.5112C92.0555 32.5112 91.9512 32.5803 91.9076 32.6051C91.6746 32.7364 91.3857 32.9143 91.1575 33.0974C90.2325 33.8378 89.421 34.7462 88.8389 35.7729C88.5844 36.2212 88.4028 36.6617 88.4283 37.1887C88.4402 37.4258 88.5452 37.6755 88.5008 37.9129C88.4616 38.1245 88.2279 38.0224 88.0877 37.995C87.9331 37.9651 87.902 37.9998 87.9238 37.8312C87.9542 37.5941 88.0348 37.3655 88.0644 37.1281C88.1476 36.4627 88.3085 35.8033 88.5038 35.1623C88.8034 34.177 89.3393 32.8818 88.9258 31.855C88.5892 31.0203 87.625 30.3571 86.7126 30.5069C85.8919 30.6415 85.3659 31.2196 84.6939 31.639C84.2419 31.9209 83.9072 32.368 83.46 32.651C83.3439 32.7246 83.1005 32.1861 83.0454 32.1014C82.8905 31.8541 82.6773 31.6486 82.4244 31.5029C81.9573 31.2326 81.4813 31.1368 80.9561 31.2788C80.7283 31.3406 80.4934 31.3295 80.2693 31.4034C80.006 31.4907 79.7692 31.6387 79.5111 31.7382C79.0219 31.9265 78.5475 32.1513 78.0919 32.4106C77.9281 32.503 77.7439 32.5071 77.5893 32.6147C77.3885 32.7542 77.2158 32.8248 77.0075 32.9295C76.5785 33.144 76.1646 33.4817 75.7615 33.748C75.2152 34.1093 74.7067 34.5099 74.1974 34.9211C73.2442 35.6912 72.4106 36.5333 71.6331 37.4791C70.8365 38.4481 70.106 39.433 69.4902 40.5296C68.9006 41.5793 68.4187 42.5842 68.6665 43.8206C68.7142 44.0588 68.7878 44.2807 68.9188 44.4867C69.0027 44.6184 69.1917 44.7379 69.1433 44.9161C69.09 45.1096 68.9713 45.276 68.9221 45.4743C68.8485 45.7665 68.7823 46.0546 68.6917 46.3431C68.3366 47.4663 68.1591 48.7039 68.0751 49.8774C67.9079 52.2149 67.9471 54.66 68.9628 56.8218C69.4802 57.924 70.2517 58.7321 71.0983 59.5791C71.3128 59.7936 71.5754 59.949 71.8125 60.138C71.9542 60.2508 72.1143 60.2952 72.2523 60.3965C72.4272 60.5263 72.5789 60.6624 72.7901 60.7364C73.1773 60.871 73.5516 61.0696 73.9292 61.239C74.3838 61.4428 74.8982 61.4931 75.3735 61.6318C75.8747 61.7779 76.459 61.8482 76.9805 61.8526C77.282 61.8548 77.583 61.836 77.8845 61.8304C78.2092 61.8245 78.5202 61.7121 78.842 61.7121C79.1109 61.7121 79.3498 61.5479 79.618 61.5479C79.8573 61.5479 80.0466 61.3603 80.2845 61.3603C80.4827 61.3603 80.7165 61.235 80.8873 61.1418C81.0645 61.0449 81.2483 60.9971 81.4232 60.9099C82.406 60.4172 83.2145 59.7685 84.0389 59.0554C84.9262 58.2883 85.6037 57.2697 86.3475 56.3688C86.7111 55.9279 87.1005 55.4977 87.4401 55.0384C87.607 54.8131 87.7421 54.5658 87.8414 54.3035C87.9586 53.998 88.1273 54.0383 88.3928 53.9314C88.9214 53.7195 89.279 53.3204 89.6955 52.9502C90.1611 52.537 90.646 52.1335 91.0924 51.7015C91.7186 51.0946 92.4272 50.5698 93.0397 49.9381C93.208 49.7642 93.3496 49.573 93.5079 49.3925C93.667 49.212 94.0287 49.2908 94.2399 49.2908H95.2074C95.5362 49.2908 95.8761 49.3441 96.1842 49.2131C96.3851 49.1284 96.6551 48.9864 96.8762 48.9864C97.0083 48.9864 97.2158 48.8111 97.3448 48.7586C97.8075 48.5703 98.3028 48.1491 98.6612 47.8095C98.9304 47.5543 99.1002 47.1612 99.3975 46.9444C99.5422 46.8387 99.6206 46.9984 99.7167 47.0916C99.8251 47.1974 100.065 47.2999 100.204 47.3694C100.697 47.6157 101.155 47.9105 101.693 48.0492C102.231 48.1894 102.816 48.1583 103.368 48.1653C104.455 48.179 105.506 47.8325 106.464 47.3243C106.883 47.1016 107.219 46.8224 107.571 46.515C107.992 46.1474 108.312 46.7281 108.668 46.9548C109.555 47.5199 110.791 48.0041 111.863 47.7319C112.348 47.6091 112.772 47.5148 113.231 47.3054C113.415 47.2211 113.581 47.2196 113.752 47.0902C113.937 46.9485 114.118 46.7573 114.366 46.8716C114.824 47.0824 115.227 47.3076 115.73 47.4119C116.307 47.5318 116.894 47.6283 117.486 47.6198C118.023 47.612 118.569 47.5543 119.086 47.4086C119.366 47.3295 119.638 47.2307 119.913 47.136C120.16 47.0506 120.377 47.2511 120.543 47.406C120.709 47.5614 120.887 47.7038 121.075 47.8325C121.217 47.9309 121.405 47.9715 121.533 48.0773C121.659 48.1801 122.616 48.3987 122.773 48.4216C125.407 48.803 127.539 48.0388 128.006 47.7825C128.164 47.696 129.254 46.9825 129.376 46.8357C129.977 46.1112 130.471 45.2453 130.728 44.3388C130.987 43.4219 131.187 42.4622 130.997 41.5109C130.902 41.0364 130.819 40.6051 130.606 40.1657C130.515 39.9782 130.374 39.7829 130.312 39.5847C130.259 39.4164 130.659 39.1608 130.753 39.0351C131.362 38.2155 131.796 37.2106 132.263 36.3048C132.473 35.8953 132.693 35.4974 132.814 35.0506C132.885 34.7895 133.103 34.1999 132.942 33.9392Z" fill="black"/>
<path d="M92.165 47.5552C92.2752 46.7156 90.6548 47.3418 90.3371 47.4143C90.3371 46.6446 90.3268 45.9041 90.2432 45.2347C90.1555 44.5283 90.0897 43.881 89.9625 43.2426C89.8374 42.6191 89.7069 41.9578 89.4469 41.4385C89.1798 40.9052 88.9742 40.3618 88.5326 40.0086C88.3606 39.871 88.1213 39.7334 87.8765 39.6806C87.4434 39.5874 87.0495 39.7209 86.7284 39.8444C86.4954 39.9339 86.2976 40.0293 86.1189 40.1725C85.961 40.299 85.7857 40.4824 85.6033 40.5712C85.6865 40.2457 85.701 39.9095 85.7439 39.5633C85.7827 39.2526 85.8696 38.9124 85.9081 38.6028C85.9917 37.9308 86.1086 37.295 86.2362 36.6577C86.3601 36.0386 86.5627 35.4239 86.6815 34.8299C86.8102 34.1849 87.0491 33.6471 87.1737 33.0254C87.2067 32.8597 87.2314 32.6755 87.2207 32.5094C87.2044 32.2635 86.9825 32.1518 86.6582 32.252C86.5542 32.2838 86.4089 32.4214 86.3064 32.4865C86.1988 32.5549 86.0804 32.6629 85.9784 32.7439C85.5464 33.0897 85.0548 33.3856 84.6661 33.7751C83.8902 34.5518 83.011 35.2578 82.3231 36.1188C81.9824 36.5445 81.6137 36.9381 81.3152 37.4074C81.1547 37.6593 80.9879 37.8009 80.9169 38.1575C80.857 38.4571 80.7475 38.9423 81.1044 39.0244C81.4558 39.1054 81.6877 38.747 81.995 38.6964C81.8301 39.3429 81.8471 40.0205 81.7135 40.688C81.5802 41.3529 81.494 42.0264 81.4558 42.7034C81.4158 43.378 81.2853 44.1066 81.2449 44.789C81.2024 45.5069 81.151 46.2037 81.151 46.9686C81.151 47.7327 81.205 48.4672 81.2449 49.1481C81.2867 49.8683 81.3222 50.5673 81.4558 51.2341C81.5164 51.5374 81.58 51.8788 81.6429 52.1947C81.6951 52.4536 81.9173 52.9048 81.7365 53.0853C81.6418 53.18 81.5364 53.2828 81.4321 53.3667C81.3663 53.4196 81.1891 53.6245 81.1037 53.6245C80.9901 53.6245 80.8436 53.8135 80.7523 53.8586C80.648 53.9112 80.4035 54.0465 80.307 54.0465C80.0984 54.0465 79.9253 54.234 79.7089 54.234C79.3428 54.234 79.0132 54.3287 78.5731 54.3043C78.039 54.2747 77.4469 54.1749 77.0497 53.9759C76.5137 53.7074 76.0007 53.4548 75.6904 52.968C75.3724 52.4687 75.2229 51.9428 75.0343 51.2807C74.8668 50.6953 74.8316 49.8801 74.9171 49.1944C74.9966 48.5542 75.1789 47.9287 75.386 47.3902C75.5994 46.8351 75.808 46.2751 76.1124 45.7969C76.7227 44.8378 77.3681 43.9542 78.1511 43.1716C78.545 42.7781 78.9307 42.3979 79.3698 42.0469C79.5233 41.9241 79.8824 41.6016 80.108 41.6016C80.439 41.6016 80.4575 41.1034 80.4945 40.8045C80.6632 39.4538 80.8185 38.1079 81.0804 36.7972C81.2035 36.1799 81.3067 35.499 81.4321 34.8757C81.5009 34.5329 81.5527 34.2366 81.5956 33.8916C81.6126 33.7577 81.6192 33.5469 81.6192 33.3756C81.6192 33.1367 81.6141 33.0331 81.455 32.954C81.0275 32.7398 80.574 33.2351 80.2127 33.2351C80.074 33.2351 79.8576 33.3697 79.7208 33.4226C79.5869 33.4744 79.4463 33.5713 79.3224 33.6334C78.7917 33.8986 78.2916 34.1719 77.7753 34.4301C76.7571 34.9401 75.8876 35.692 75.0336 36.3751C74.6027 36.7195 74.2265 37.1348 73.8382 37.5232C73.4491 37.9126 73.0589 38.3095 72.7135 38.7419C72.0133 39.6166 71.4326 40.5601 70.815 41.5306C70.6637 41.7688 70.5675 42.0576 70.4632 42.3273C70.3756 42.5543 70.2232 42.939 70.3227 43.2885C70.3848 43.5067 70.6767 43.5467 70.9086 43.4294C71.035 43.3651 71.1301 43.2571 71.237 43.1713C71.4471 43.0033 71.7023 42.8462 71.8931 42.6557C71.9878 42.5606 72.1483 42.3568 72.2914 42.3273C72.1028 42.524 71.9952 42.8203 71.8461 43.054C71.693 43.2966 71.5523 43.5469 71.4245 43.8037C71.17 44.3112 70.886 44.8434 70.721 45.4207C70.5564 45.9966 70.3331 46.5895 70.2055 47.2249C70.0827 47.8396 69.9155 48.5227 69.8774 49.1703C69.796 50.5521 69.6847 52.1244 69.8545 53.4821C69.941 54.1786 70.1097 54.7796 70.3231 55.334C70.5502 55.9224 70.812 56.3737 71.1201 56.8571C71.2706 57.0941 71.419 57.3198 71.6117 57.5128C71.8069 57.7085 72.0263 57.8801 72.2212 58.0754C72.5962 58.4504 73.0877 58.814 73.5804 59.0596C74.1962 59.3673 74.8949 59.7005 75.6664 59.8333C76.3062 59.9432 77.1614 59.9853 77.8693 59.9036C78.2032 59.8651 78.5002 59.8392 78.8065 59.7863C79.0206 59.7493 79.2496 59.6573 79.463 59.5988C80.1276 59.4172 80.7393 59.115 81.2671 58.7785C81.7298 58.4841 82.2217 58.1523 82.6031 57.7706C82.9914 57.3826 83.4071 57.0057 83.7511 56.5756C83.9238 56.36 84.091 56.1388 84.267 55.9195C84.435 55.7094 84.5685 55.4309 84.7589 55.2401C85.1403 54.8584 85.4761 54.3968 85.8141 53.9744C85.9787 53.7677 86.1951 53.5713 86.2358 53.248C86.2853 52.8526 86.1984 52.4961 86.1185 52.2165C85.9454 51.6103 85.8526 50.9538 85.7672 50.2718C85.6832 49.6034 85.5982 48.9077 85.556 48.1858C85.5384 47.8189 85.5306 47.4516 85.5327 47.0843C85.531 46.7434 85.5782 46.404 85.6729 46.0765C85.7579 45.7791 85.8563 45.4718 86.0483 45.2798C86.1648 45.1637 86.2524 45.0646 86.353 45.2328C86.4237 45.3512 86.478 45.484 86.5402 45.6079C86.8017 46.1297 86.8054 46.8369 86.8915 47.5297C86.977 48.2143 86.991 49.0017 87.0325 49.7092C87.055 50.0924 87.0576 50.4482 87.0787 50.8103C87.1005 51.1768 87.0546 51.557 87.1257 51.9121C87.1534 52.0493 87.281 52.2161 87.4341 52.2161C87.7322 52.2161 87.7818 52.1233 87.9227 51.982C88.1176 51.7867 88.3366 51.6147 88.5319 51.4194C89.3137 50.639 90.211 49.974 90.9925 49.1925C91.2311 48.9547 91.504 48.7517 91.7422 48.5131C91.865 48.3907 91.9967 48.3141 92.0936 48.1621C92.1553 48.0689 92.2567 47.7013 92.165 47.5552Z" fill="#D7914A"/>
<path d="M131.113 33.9393C131.072 33.7355 130.657 33.488 130.481 33.4004C130.36 33.3401 130.227 33.2498 130.106 33.1896C129.991 33.1319 129.766 33.002 129.637 33.002C129.557 33.002 129.469 32.9085 129.391 32.9085C129.304 32.9085 129.125 32.8522 129.028 32.8145C128.83 32.7387 128.6 32.6884 128.372 32.627C128.133 32.563 127.837 32.4868 127.519 32.4868C127.031 32.4868 126.592 32.4635 126.087 32.4635C125.69 32.4635 125.404 32.5804 125.068 32.5804C124.86 32.5804 124.764 32.7668 124.693 32.9088C124.579 33.1352 124.3 33.7299 124.833 33.7055C124.673 33.8819 124.282 34.0003 124.083 34.1271C123.831 34.2877 123.602 34.4186 123.38 34.5961C123.148 34.7799 122.931 34.9818 122.731 35.2001C122.61 34.9349 122.458 34.6851 122.278 34.4559C122.099 34.2318 121.963 33.9995 121.763 33.7994C121.669 33.7057 121.575 33.6119 121.481 33.518C121.426 33.4621 121.262 33.2369 121.177 33.2369C121.059 33.2369 120.943 33.0028 120.825 33.0028C120.734 33.0028 120.535 32.8341 120.45 32.7916C120.104 32.6181 119.65 32.4661 119.208 32.4169C118.499 32.3378 117.765 32.3896 117.147 32.5101C116.746 32.5885 116.364 32.7772 116.021 32.9088C115.72 33.0242 115.436 33.1422 115.154 33.2839C115.03 33.346 114.915 33.447 114.803 33.518C114.726 33.5668 114.506 33.7292 114.428 33.7292C114.352 33.7292 114.162 33.9374 114.099 33.987C113.996 34.0698 113.889 34.1745 113.795 34.2684C113.707 34.3572 113.58 34.4681 113.514 34.5728C113.436 34.6956 113.407 34.8473 113.42 35.0651C113.429 35.2123 113.508 35.4494 113.49 35.5574C113.47 35.678 113.293 35.7904 113.233 35.8851C113.073 36.1285 112.94 36.3878 112.834 36.6588C112.754 36.8663 112.65 37.0113 112.67 37.3619C112.677 37.4825 112.681 37.6138 112.717 37.7369C112.771 37.9267 112.869 37.9156 113.092 37.9478C112.929 38.5188 112.74 39.1394 112.74 39.8932C112.74 40.6714 112.803 41.3797 112.928 42.0021C112.956 42.1375 112.992 42.2729 113.032 42.4068C112.856 42.413 112.677 42.4197 112.506 42.4005C112.211 42.3679 111.842 42.1271 111.686 41.9315C111.499 41.6985 111.408 41.4743 111.311 41.1348C111.142 40.5449 111.207 39.6957 111.288 39.0492C111.373 38.3587 111.434 37.7125 111.569 37.0335C111.697 36.3933 111.869 35.7908 111.991 35.1823C112.057 34.8498 112.142 34.558 112.225 34.2684C112.291 34.0399 112.405 34.0295 112.623 33.9637C112.716 33.9359 112.803 33.9004 112.881 33.8701C112.948 33.8442 113.092 33.7761 113.139 33.7761C113.359 33.7761 113.738 33.4518 113.889 33.3308C114.107 33.1566 114.331 32.9869 114.545 32.8153C114.987 32.4613 115.269 32.016 115.623 31.5733C115.827 31.317 115.964 30.9615 116.115 30.659C116.194 30.4992 116.272 30.3572 116.326 30.1671C116.357 30.0558 116.471 29.6948 116.396 29.5812C116.295 29.0893 115.156 29.6511 114.809 29.6511C114.553 29.6511 114.195 29.7884 113.935 29.8623C113.69 29.9326 113.429 30.0413 113.162 30.0968C113.39 29.5261 113.51 28.8556 113.677 28.269C113.849 27.6694 114.003 27.0706 114.17 26.4881C114.279 26.105 114.329 25.6101 113.724 25.785C113.457 25.862 113.197 26.0654 112.975 26.2067C112.732 26.3596 112.482 26.5004 112.225 26.6287C112.096 26.6934 111.97 26.7629 111.849 26.8395C111.775 26.8872 111.584 27.074 111.498 27.074C111.394 27.074 111.228 27.2567 111.147 27.3085C111.024 27.3865 110.91 27.4701 110.796 27.5426C110.673 27.6203 110.561 27.7024 110.444 27.7771C110.37 27.824 110.169 28.0116 110.093 28.0116C110.016 28.0116 109.815 28.1983 109.741 28.2457C109.629 28.3171 109.526 28.4317 109.413 28.5035C109.171 28.6577 108.953 28.8175 108.71 28.9721C108.591 29.0475 108.312 29.3708 108.171 29.3708C108.127 29.3708 107.919 29.5217 107.89 29.5583C107.803 29.667 107.795 29.7488 107.749 29.9097C107.685 30.1345 107.595 30.4951 107.772 30.6364C107.912 30.7478 108.279 30.6594 108.459 30.6594H109.67C109.533 30.8939 109.439 31.2689 109.366 31.5267C109.279 31.8292 109.172 32.1092 109.085 32.4173C108.919 32.9965 108.715 33.6027 108.545 34.1982C108.196 35.4187 107.918 36.6806 107.748 38.0417C107.708 38.3646 107.628 38.7474 107.608 39.0729C107.596 39.2778 107.596 39.415 107.584 39.6117C107.579 39.7061 107.584 39.7782 107.562 39.8462C107.552 39.8751 107.582 39.9661 107.562 39.9868C107.523 40.0256 107.359 39.989 107.304 40.0101C107.12 40.0796 106.986 40.573 106.882 40.7369C106.722 40.9884 106.593 41.2117 106.367 41.3926C106.151 41.5639 105.924 41.7336 105.687 41.8849C105.415 42.0572 105.017 42.2403 104.632 42.2596C104.255 42.2784 103.914 42.2381 103.647 42.166C103.506 42.1275 103.302 41.9785 103.178 41.9785C102.936 41.9785 102.64 41.6042 102.499 41.4629C102.32 41.2835 102.03 40.9 101.983 40.6192C102.142 40.6984 102.331 40.7524 102.522 40.8068C102.607 40.8308 102.763 40.9003 102.85 40.9003C103.026 40.9003 103.323 40.924 103.54 40.924C104.017 40.9239 104.487 40.8114 104.913 40.5956C105.473 40.3156 105.925 40.0737 106.295 39.6114C106.469 39.3954 106.658 39.196 106.811 38.9553C106.968 38.7086 107.05 38.4519 107.163 38.1586C107.265 37.8901 107.38 37.5949 107.467 37.2913C107.548 37.0091 107.588 36.6344 107.608 36.3071C107.648 35.6184 107.637 34.7411 107.514 34.1271C107.388 33.4995 107.179 32.9085 106.881 32.4399C106.594 31.9886 106.156 31.5614 105.662 31.3151C105.346 31.1572 104.998 30.9401 104.535 30.9401C104.38 30.9401 104.256 30.9027 104.069 30.8931C103.896 30.8846 103.679 30.8931 103.485 30.8931C103.205 30.8931 102.885 30.9822 102.616 31.0337C102.407 31.0736 102.151 31.1712 101.96 31.2445C101.836 31.2922 101.605 31.4316 101.491 31.4316C101.395 31.4316 101.189 31.5711 101.092 31.6191C101 31.6654 100.823 31.83 100.717 31.83C100.586 31.83 100.491 32.0641 100.366 32.0641C100.253 32.0641 100.143 32.3219 100.038 32.3219C99.8789 32.3219 99.5604 32.7997 99.452 32.9081C99.3119 33.0486 99.2175 33.2362 99.077 33.3767C98.9568 33.4973 98.7397 33.6559 98.702 33.8453C98.6487 34.1112 98.6901 34.3897 98.7489 34.5954C98.8625 34.9941 99.0622 34.7304 99.3111 34.6893C99.0522 35.2105 98.81 35.719 98.679 36.3766C98.5603 36.9695 98.3931 37.6038 98.3506 38.3217C98.3088 39.0311 98.2844 39.7638 98.3273 40.5013C98.3406 40.7239 98.4109 40.8482 98.2337 40.9932C98.0854 41.1148 98.0854 41.1481 98.0225 41.3682C97.9308 41.6881 97.8946 41.9984 97.7648 42.2588C97.487 42.8151 97.1231 43.1076 96.6163 43.4301C96.3267 43.6151 95.7923 43.7819 95.3725 43.7819C94.9605 43.7819 94.6779 43.7749 94.3898 43.665C94.2715 43.6195 94.1228 43.5226 94.0148 43.4538C93.7074 43.2589 93.3464 42.8809 93.2181 42.5166C93.3476 42.5214 93.4445 42.558 93.5935 42.5872C93.7285 42.6139 93.9704 42.6338 94.1771 42.6338C94.439 42.6338 94.7312 42.5569 94.9524 42.4933C95.2834 42.3982 95.5992 42.2563 95.8899 42.0717C96.3674 41.7676 96.711 41.3534 97.0143 40.8763C97.2954 40.4358 97.5569 39.8285 97.6708 39.2593C97.7958 38.635 97.8528 37.856 97.7644 37.15C97.7207 36.8031 97.6841 36.4454 97.6238 36.1421C97.5573 35.8089 97.4759 35.5174 97.3427 35.2515C97.2148 34.9963 97.0924 34.7393 96.9207 34.5255C96.8353 34.4186 96.7465 34.3065 96.6396 34.2207C96.5771 34.1704 96.39 33.9629 96.3112 33.9629C96.2469 33.9629 96.0205 33.7939 95.9362 33.7521C95.759 33.6633 95.563 33.5646 95.3096 33.5646C95.0112 33.5646 94.51 33.5413 94.1746 33.5413C93.9523 33.5413 93.6793 33.6619 93.4996 33.7288C92.873 33.9622 92.4218 34.244 91.9528 34.6194C91.5153 34.9697 91.2434 35.4457 90.8514 35.8377C90.6517 36.0371 90.5159 36.2472 90.3587 36.4939C90.2752 36.6248 90.1964 36.6917 90.1712 36.8922C90.1476 37.0838 90.186 37.2687 90.2182 37.4314C90.2289 37.4862 90.2348 37.5953 90.2648 37.6423C90.3066 37.7077 90.3891 37.7255 90.4057 37.8061C90.4175 37.8649 90.2482 38.1271 90.2182 38.2044C90.1117 38.4804 89.9985 38.7866 89.9367 39.0951C89.8035 39.7817 89.7563 40.4823 89.7962 41.1807C89.838 41.8919 89.9778 42.5355 90.101 43.1491C90.2226 43.7564 90.5045 44.3311 90.7571 44.8363C91.0212 45.3652 91.3929 45.7595 91.7413 46.1956C91.9036 46.399 92.1525 46.5935 92.3741 46.7344C92.4984 46.814 92.6119 46.8776 92.7488 46.9453C92.8553 46.9985 93.0605 47.1561 93.1941 47.1561C93.3243 47.1561 93.6087 47.29 93.7566 47.3436C93.9608 47.4179 94.2774 47.4941 94.53 47.5078C95.1695 47.5422 95.6336 47.3969 96.0771 47.226C96.6522 47.0052 97.1075 46.6416 97.5066 46.2422C97.899 45.8494 98.1786 45.4603 98.4442 44.9295C98.5681 44.681 98.6435 44.3966 98.7253 44.1096C98.8077 43.8218 98.8592 43.4686 98.8658 43.1254C99.0585 43.2988 99.0988 43.6754 99.2408 43.8988C99.3773 44.1129 99.5526 44.3981 99.7331 44.5786C99.9262 44.7712 100.105 44.9932 100.319 45.1644C100.458 45.2757 100.81 45.6563 100.998 45.6563C101.073 45.6563 101.309 45.8216 101.397 45.8671C101.552 45.9474 101.667 45.9977 101.866 46.0546C102.099 46.1216 102.315 46.2181 102.633 46.2181C102.758 46.2181 102.976 46.2655 103.165 46.2655C103.391 46.2655 103.556 46.2422 103.794 46.2422C103.946 46.2422 104.308 46.1412 104.466 46.0783C104.646 46.007 104.826 45.9368 105.006 45.8675C105.314 45.7491 105.59 45.6341 105.849 45.4692C106.295 45.1851 106.761 44.7653 107.044 44.3204C107.196 44.0829 107.315 43.827 107.443 43.5714C107.502 43.4534 107.558 43.2992 107.607 43.1727C107.66 43.0355 107.651 42.8236 107.747 42.7274C107.754 42.7204 107.746 42.6679 107.747 42.6571H107.795C107.807 42.9638 107.974 43.2852 108.076 43.5474C108.18 43.8196 108.348 44.0637 108.498 44.2975C108.631 44.5079 108.865 44.7509 109.06 44.9066C109.173 44.9961 109.261 45.0834 109.389 45.1644C109.47 45.2166 109.636 45.3989 109.74 45.3989C109.836 45.3989 110.041 45.538 110.138 45.5857C110.293 45.6637 110.545 45.7739 110.747 45.7739C110.896 45.7739 111.009 45.8202 111.206 45.8202C111.409 45.8202 111.642 45.7739 111.778 45.7739C112.002 45.7739 112.239 45.6541 112.411 45.5857C113.01 45.349 113.473 45.0627 113.887 44.6488C113.976 44.5585 114.058 44.4614 114.131 44.3585C114.298 44.5419 114.509 44.6851 114.684 44.8593C114.864 45.0394 115.179 45.2125 115.411 45.3283C115.759 45.5036 116.316 45.6341 116.746 45.68C117.145 45.7225 117.593 45.68 117.975 45.68C118.22 45.68 118.517 45.5161 118.726 45.5161C118.919 45.5161 119.131 45.3283 119.3 45.3283C119.433 45.3283 119.662 45.1725 119.769 45.1174C120 44.9979 120.222 44.8621 120.434 44.711C120.711 45.052 120.995 45.3811 121.339 45.6567C121.4 45.7059 121.567 45.9378 121.644 45.9378C121.746 45.9378 121.857 46.1956 121.972 46.1956C122.048 46.1956 122.258 46.3624 122.347 46.4068C122.467 46.4667 122.668 46.6172 122.828 46.6172C122.979 46.6172 123.237 46.7574 123.402 46.8047C123.608 46.8635 123.922 46.9686 124.16 46.9686C124.545 46.9686 125.054 46.922 125.36 46.922C125.624 46.922 125.898 46.8369 126.12 46.7577C127.354 46.3195 128.095 45.5749 128.651 44.4617C128.902 43.962 129.112 43.3321 129.191 42.7037C129.231 42.3786 129.231 41.9962 129.191 41.6726C129.152 41.3575 129.055 41.025 128.933 40.782C128.674 40.2638 128.361 39.7882 127.972 39.3995C127.581 39.0089 127.121 38.689 126.73 38.2976C126.55 38.1172 126.313 37.8952 126.214 37.6419C126.143 37.4566 126.208 37.3845 126.355 37.3138C126.619 37.187 127.107 37.2905 127.437 37.2905C127.849 37.2905 128.238 37.4684 128.511 37.6423C128.63 37.7181 128.705 37.8331 128.839 37.9001C129.032 37.997 129.252 37.9108 129.355 37.7828C129.523 37.5735 129.633 37.2487 129.753 37.0094C129.883 36.7494 130.021 36.4987 130.151 36.2364C130.408 35.7231 130.738 35.2371 130.948 34.6897C131.006 34.5443 131.211 34.0939 131.113 33.9393ZM103.039 35.4394C103.34 35.2471 103.834 35.1054 104.164 35.3691C104.388 35.5485 104.517 35.7575 104.562 36.1192C104.602 36.4443 104.494 36.7923 104.374 37.0327C104.314 37.154 104.233 37.2924 104.14 37.3848C104.084 37.4407 103.897 37.6423 103.812 37.6423C103.741 37.6423 103.687 37.7358 103.606 37.7358C103.442 37.7358 103.28 37.7125 103.132 37.7125C103 37.7125 102.779 37.5642 102.71 37.478C102.594 37.3327 102.558 36.6581 102.335 36.6581C102.236 36.6581 102.023 36.718 101.984 36.7047C102.254 36.1654 102.543 35.7545 103.039 35.4394ZM93.1256 38.4156C93.2188 38.1641 93.4452 37.9396 93.6412 37.7828C93.7426 37.7014 93.8513 37.586 93.9697 37.525C94.1516 37.4318 94.4767 37.3408 94.7194 37.4078C95.3159 37.572 95.2179 38.5673 94.9771 39.0485C94.8285 39.3462 94.1664 39.6669 93.8287 39.3295C93.6989 39.1994 93.6294 39.0429 93.5709 38.8376C93.5033 38.6013 93.4496 38.3957 93.1256 38.4156ZM119.631 40.4543C119.31 40.9569 118.932 41.2931 118.365 41.5557C117.948 41.7488 117.257 41.6763 116.888 41.4854C116.645 41.3593 116.499 41.0819 116.373 40.8297C116.256 40.5952 116.137 40.2738 116.115 39.9394C116.093 39.6114 116.2 39.2323 116.279 38.9549C116.444 38.3775 116.704 37.8964 117.076 37.5254C117.278 37.3234 117.503 37.1899 117.802 37.0801C117.936 37.0309 118.102 36.9565 118.153 36.8223C118.215 36.6632 118.133 36.4976 118.107 36.3537C118.485 36.2864 118.811 36.5416 119.044 36.6584C119.281 36.7772 119.402 36.954 119.559 37.1504C119.709 37.3364 119.835 37.5169 119.912 37.7832C119.951 37.9208 119.973 38.0221 120.005 38.1815C120.022 38.2677 120.029 38.5148 120.076 38.6039C120.076 38.9712 120.02 39.314 119.935 39.6114C119.851 39.9076 119.783 40.215 119.631 40.4543ZM124.392 43.29C124.07 43.29 123.805 42.98 123.591 42.8447C123.329 42.6779 123.191 42.4918 122.982 42.2821C122.857 42.1575 122.749 42.0162 122.638 41.8779C122.723 41.6737 122.806 41.4658 122.889 41.2513C122.993 40.9776 123.082 40.6854 123.155 40.3825C123.677 40.8822 124.262 41.3157 124.717 41.8841C125.074 42.3317 125.44 43.29 124.392 43.29Z" fill="#D7914A"/>
<path d="M107.468 41.0168C107.496 40.8155 107.381 40.6672 107.351 40.4779C107.266 40.4779 107.17 40.857 107.122 40.9505C107.024 41.141 106.894 41.3041 106.745 41.4573C106.54 41.6684 106.319 41.8105 106.113 42.0076C105.496 42.6031 104.631 42.7214 103.818 42.663C103.403 42.6324 103.002 42.5 102.651 42.2777C102.299 42.0553 102.007 41.7498 101.802 41.3881C101.596 41.0301 101.454 40.6351 101.311 40.2489C101.156 39.8291 101.058 39.4364 101.023 38.9541C101.566 39.6305 102.102 40.088 103.006 40.1309C103.906 40.1735 104.848 39.9098 105.543 39.328C107.027 38.0853 107.366 35.8632 106.979 34.0605C106.805 33.2501 106.34 32.4183 105.647 31.9364C104.949 31.4511 104.137 31.2736 103.293 31.3687C102.426 31.4659 101.673 31.7578 100.899 32.1557C100.481 32.371 100.128 32.6802 99.7959 33.0086C99.504 33.2964 99.0946 33.6096 98.9141 33.9858C99.2204 33.9351 99.5414 33.6577 99.8362 33.5482C100.179 33.4214 100.533 33.188 100.906 33.1418C100.652 33.4713 100.316 33.7165 100.067 34.0575C99.7737 34.4558 99.5179 34.8806 99.3032 35.3265C98.8993 36.1798 98.7 37.185 98.5994 38.1182C98.3934 40.0296 98.5472 42.2843 99.7748 43.8672C100.999 45.4462 103.053 45.8667 104.85 45.0785C105.702 44.7042 106.396 44.1494 106.858 43.3235C107.078 42.9282 107.247 42.5061 107.359 42.0675C107.423 41.8142 107.621 41.262 107.468 41.0168ZM101.023 38.3453C100.959 37.779 101.154 37.0674 101.353 36.5422C101.565 35.9815 101.859 35.3994 102.336 35.0173C103.049 34.4459 104.253 34.0579 104.656 35.1686C104.85 35.6993 104.938 36.3403 104.749 36.8843C104.678 37.0929 104.341 37.9233 104.047 37.9233C103.888 37.9233 103.734 38.1485 103.57 38.1881C103.306 38.2513 102.99 38.2517 102.738 38.1396C102.519 38.0416 102.292 37.8415 102.206 37.6119C102.18 37.5394 102.09 37.1384 102.008 37.1266C101.928 37.1148 101.654 37.5804 101.591 37.6699C101.521 37.7668 101.163 38.3852 101.023 38.3453ZM98.211 41.485C98.2491 41.8234 98.0975 42.1922 98.0002 42.4459C97.8966 42.7151 97.6984 42.94 97.5312 43.149C97.1802 43.5884 96.6192 43.9449 96.0082 44.1102C95.51 44.2449 94.8209 44.3384 94.3209 44.1568C93.9884 44.0366 93.7243 43.9323 93.4772 43.7352C93.0611 43.4023 92.7649 42.8731 92.5163 42.3756C92.3921 42.1267 92.2667 41.8293 92.1883 41.5553C92.0951 41.2287 92.0899 40.898 92.0008 40.5474C92.1949 40.7235 92.2578 41.0918 92.4224 41.2975C92.5541 41.4624 92.894 41.7661 93.1654 41.7661C93.2501 41.7661 93.3592 41.86 93.4436 41.86C93.6818 41.86 93.9329 41.8367 94.1374 41.8367C94.4015 41.8367 94.6223 41.7102 94.8361 41.6492C95.1623 41.556 95.4463 41.4136 95.6793 41.2272C96.1272 40.8688 96.4642 40.4775 96.7342 39.9386C96.9798 39.4478 97.2102 38.8605 97.2498 38.1807C97.2934 37.4402 97.252 36.6772 97.0859 36.0951C96.911 35.4822 96.6561 35.0321 96.2659 34.6423C96.0581 34.4348 95.8443 34.3146 95.5628 34.1733C95.0976 33.9407 94.255 34.0094 93.7117 34.103C93.0282 34.2203 92.4794 34.5824 92.0241 34.9467C91.6904 35.2137 91.4478 35.5732 91.1804 35.9076C90.9211 36.2315 90.5949 36.587 90.407 36.962C90.8564 36.6676 91.3287 36.4298 91.8595 36.2123C91.5159 36.6443 91.1316 37.0489 90.8283 37.5246C90.5202 38.0091 90.3471 38.6005 90.1722 39.2118C90.0832 39.5253 90.0281 39.8475 90.008 40.1727C89.9861 40.5397 89.9861 40.9076 90.008 41.2745C90.0464 41.9251 90.2247 42.616 90.43 43.149C90.6471 43.713 90.8572 44.2637 91.2033 44.6953C91.5636 45.1462 91.902 45.532 92.3518 45.8915C92.4601 45.9773 92.587 46.0516 92.7035 46.1252C92.7871 46.1792 92.9753 46.336 93.0782 46.336C93.2094 46.336 93.4014 46.5106 93.5475 46.5472C93.7605 46.6001 94.0198 46.7107 94.2502 46.7107C94.4422 46.7107 94.7092 46.6874 94.8605 46.6874C95.0598 46.6874 95.1948 46.6175 95.3165 46.6175C95.5018 46.6175 95.7049 46.4895 95.8672 46.4303C96.1572 46.3231 96.3773 46.1141 96.6173 45.9606C97.0992 45.6548 97.4125 45.1995 97.7187 44.719C97.873 44.4771 97.9614 44.1994 98.0472 43.899C98.1308 43.6054 98.2343 43.3132 98.2343 42.9378V42.2351C98.2347 42.0409 98.2987 41.6244 98.211 41.485ZM92.0011 40.2904C92.0011 39.9275 92.0322 39.5714 92.0943 39.2592C92.1554 38.957 92.226 38.6212 92.3521 38.3686C92.6118 37.8486 92.8803 37.3555 93.3126 37.0094C93.5405 36.8274 93.914 36.611 94.2953 36.611C94.6515 36.611 94.7736 36.6547 94.9533 36.7985C95.0798 36.8999 95.1338 36.9724 95.2111 37.1266C95.4315 37.5671 95.5022 38.6064 95.2581 39.095C95.0395 39.5318 94.67 39.9619 94.0394 39.9619C93.63 39.9619 93.4473 39.8118 93.2893 39.5636C93.2353 39.4789 93.1651 39.3861 93.1251 39.2825C93.0815 39.1686 93.0752 38.9984 93.0079 38.9075C92.884 39.1571 92.6872 39.3968 92.5163 39.6106C92.4154 39.737 92.108 40.2926 92.0011 40.2904ZM86.7048 32.6739C86.6785 32.6998 86.6789 32.699 86.7048 32.6739V32.6739ZM70.5576 42.751C70.5321 42.7769 70.5324 42.7765 70.5576 42.751V42.751Z" fill="#F2E54B"/>
<path d="M91.2744 47.6487C91.2249 47.6935 90.8495 47.7423 90.7821 47.7423C90.656 47.7423 90.5159 47.827 90.4075 47.8592C90.2088 47.9198 90.0133 47.9903 89.8216 48.0704C89.8216 47.3488 89.8386 46.5355 89.7983 45.8435C89.7551 45.0997 89.6241 44.4746 89.5405 43.8048C89.4625 43.1749 89.2842 42.5299 89.0719 41.977C88.8674 41.4451 88.6007 40.8733 88.2279 40.5001C88.1369 40.4091 88.0186 40.3015 87.9002 40.2427C87.6805 40.1329 87.4516 40.1488 87.1502 40.1488C86.8077 40.1488 86.4692 40.3992 86.2362 40.5471C86.0117 40.6902 85.7665 40.8766 85.5801 41.0627C85.3922 41.2506 85.2336 41.518 85.0176 41.6722C84.9946 41.6881 84.9721 41.7225 84.9473 41.7421C85.0324 41.0612 85.1222 40.3666 85.2051 39.7035C85.2879 39.0385 85.4296 38.3997 85.5095 37.7584C85.5879 37.1341 85.7158 36.4731 85.8845 35.8836C86.0617 35.2641 86.153 34.6272 86.3298 34.0091C86.3901 33.7976 86.4341 33.5853 86.4937 33.3763C86.5514 33.1759 86.6926 32.9255 86.6812 32.6969C86.1967 32.9403 85.7617 33.3715 85.3453 33.7048C84.9113 34.0487 84.4968 34.4164 84.1036 34.8062C83.3159 35.594 82.5554 36.3659 81.8538 37.2435C81.6186 37.5376 81.2643 37.8797 81.1274 38.2514C81.3549 38.1379 81.586 38.0106 81.8068 37.9C82.0132 37.7969 82.261 37.6086 82.4863 37.572C82.3742 37.852 82.3572 38.2425 82.2987 38.5329C82.2316 38.8586 82.177 39.1868 82.1349 39.5167C82.0506 40.1869 81.9422 40.8234 81.8534 41.5324C81.6889 42.8461 81.525 44.3085 81.525 45.7506C81.525 46.5029 81.5539 47.2448 81.5953 47.9535C81.6374 48.6684 81.6711 49.4074 81.8065 50.0861C81.9322 50.7152 81.9877 51.4116 82.1578 52.0082C82.2266 52.2479 82.4056 52.738 82.322 52.9221C82.2222 53.1407 81.9041 53.3397 81.7358 53.508C81.5498 53.6944 81.3279 53.9041 81.1034 54.0469C80.9207 54.1623 80.5767 54.4689 80.3296 54.4689C80.1107 54.4689 79.9357 54.656 79.6972 54.656C79.5914 54.656 79.4642 54.75 79.3754 54.75C79.1509 54.75 78.9952 54.7736 78.7873 54.7736C78.369 54.7736 78.0151 54.7659 77.6582 54.7034C77.5605 54.6856 77.424 54.6094 77.3068 54.6094C77.1888 54.6094 77.0782 54.5159 76.9906 54.5159C76.7095 54.5159 76.3392 54.224 76.1351 54.0935C75.8821 53.9326 75.7064 53.7591 75.5026 53.5546C75.0817 53.1337 74.9212 52.6536 74.6823 52.0319C74.4759 51.4945 74.3716 50.8032 74.3306 50.1101C74.3073 49.7144 74.3339 49.3319 74.3775 48.985C74.4219 48.627 74.4822 48.2971 74.5414 48.0008C74.6679 47.368 74.8484 46.7777 75.1039 46.2669C75.3698 45.734 75.5936 45.2265 75.901 44.7439C76.4987 43.8037 77.2162 42.9589 77.9866 42.1893C78.3871 41.7891 78.7355 41.4018 79.2286 41.0878C79.3421 41.0157 79.456 40.9321 79.5803 40.853C79.6639 40.7997 79.9346 40.7065 79.9786 40.6189C80.0378 40.4998 80.0319 40.2623 80.0485 40.1269C80.0696 39.9568 80.0988 39.7734 80.1188 39.611C80.2819 38.3043 80.4761 36.9569 80.7283 35.6972C80.8807 34.9353 81.0357 34.1316 81.15 33.3774C80.89 33.3922 80.6876 33.4932 80.4938 33.5649C80.3518 33.6178 80.1229 33.7525 79.9901 33.7525C79.8643 33.7525 79.6591 33.8915 79.5333 33.94C79.4113 33.987 79.2759 34.0924 79.1583 34.1508C78.6379 34.4112 78.0938 34.6412 77.6115 34.9475C77.14 35.2478 76.6377 35.5396 76.2054 35.8847C75.982 36.063 75.749 36.2009 75.5492 36.4003C75.3606 36.5893 75.1243 36.7731 74.9168 36.9395C74.0665 37.6204 73.3012 38.4785 72.6203 39.3295C71.9191 40.2057 71.344 41.157 70.8158 42.2122C70.7374 42.369 70.588 42.568 70.558 42.7514C70.7873 42.6405 71.014 42.389 71.1908 42.2122C71.3798 42.0236 71.6395 41.8627 71.847 41.6966C71.959 41.6071 72.0755 41.5405 72.1987 41.4625C72.2741 41.4144 72.4295 41.2047 72.5268 41.2047C72.6022 41.2047 72.8034 41.0179 72.8778 40.9702C72.9521 40.9233 73.1145 40.7124 73.2058 40.7124C73.3689 40.7124 73.5217 40.3844 73.6981 40.3844C73.8183 40.3844 74.0861 40.1229 74.1904 40.0563C74.5332 39.8381 74.9079 39.6509 75.2685 39.4705C75.2326 39.5614 75.0396 39.6913 74.9637 39.7515C74.8543 39.8396 74.7337 39.9106 74.6357 40.0093C74.44 40.2046 74.2688 40.4236 74.0731 40.6185C73.8767 40.8149 73.7096 41.0324 73.5343 41.2513C73.3704 41.4558 73.1566 41.667 73.0187 41.8841C72.7176 42.3564 72.4328 42.8347 72.1281 43.3136C71.824 43.7911 71.5929 44.337 71.331 44.86C71.0777 45.3663 70.8624 45.9492 70.6986 46.524C70.5252 47.1349 70.3766 47.7526 70.2533 48.3755C70.1264 49.0105 70.0188 49.7251 70.0188 50.4374C70.0188 51.1923 69.9988 51.9269 70.0421 52.6644C70.0794 53.299 70.261 53.9881 70.4637 54.5159C70.6753 55.0655 70.9134 55.614 71.2138 56.0859C71.5196 56.5663 71.9694 56.8889 72.3622 57.2805C72.5619 57.4803 72.7949 57.6167 73.0183 57.7961C73.1248 57.8815 73.2532 57.9566 73.3697 58.031C73.4447 58.0787 73.6667 58.2418 73.7447 58.2418C73.8608 58.2418 74.0594 58.4116 74.1667 58.4522C74.315 58.5096 74.5125 58.6405 74.6701 58.6405C74.8424 58.6405 75.074 58.7766 75.2448 58.8273C75.4383 58.8853 75.8055 58.9915 75.9901 58.9915C76.4343 58.9915 76.8064 59.0385 77.285 59.0385C77.6219 59.0385 77.8653 58.9445 78.2233 58.9445C78.4304 58.9445 78.6974 58.7807 78.9194 58.7807C79.1775 58.7807 79.3684 58.5932 79.6032 58.5932C79.7682 58.5932 79.9513 58.4637 80.0955 58.4056C80.2002 58.3635 80.4054 58.1944 80.5171 58.1944C80.644 58.1944 80.7616 57.984 80.8922 57.984C80.9987 57.984 81.164 57.8006 81.2439 57.7499C81.7351 57.437 82.1334 57.0941 82.5329 56.695C82.9637 56.2645 84.3226 54.6198 84.7357 54.1408C84.9129 53.9348 85.0815 53.6966 85.2513 53.4843C85.3974 53.3024 85.7358 53.0801 85.6966 52.8053C85.6504 52.4842 85.528 52.1843 85.4854 51.844C85.4052 51.2038 85.265 50.5488 85.1814 49.8756C85.0953 49.1669 85.0327 48.4555 84.9939 47.7427C84.9517 47.0211 85.0194 46.2229 85.1814 45.657C85.2705 45.3438 85.356 45.0778 85.5091 44.8367C85.6422 44.6277 85.8989 44.2978 86.2244 44.2978C86.8617 44.2978 86.9782 45.2787 87.1261 45.798C87.2951 46.3897 87.3447 47.1424 87.3839 47.8129C87.4516 48.9525 87.5011 50.0591 87.5011 51.2815C88.3648 50.5869 89.1437 49.7943 90.0084 49.1019C90.149 48.9891 90.2803 48.8537 90.4071 48.7269C90.4644 48.6692 90.7611 48.3751 90.8288 48.3751C90.8964 48.3751 91.1931 48.0811 91.2508 48.0238C91.3606 47.9139 91.5773 47.7845 91.6491 47.6487H91.2744ZM75.2918 39.4468C75.3173 39.4719 75.3173 39.4719 75.2918 39.4468V39.4468ZM130.621 34.1737C130.473 33.7913 129.924 33.6959 129.589 33.5668C129.033 33.3538 128.498 33.0886 127.903 33.0024C127.36 32.9236 126.787 32.9088 126.238 32.911C125.905 32.9125 125.189 32.8215 124.903 33.0257C125.279 33.0087 125.594 33.2827 125.94 33.3852C126.242 33.4747 126.628 33.5546 126.848 33.7991C125.21 33.7991 123.294 34.6113 122.503 36.0859C122.348 35.6656 122.153 35.261 121.922 34.8776C121.399 34.0177 120.71 33.387 119.763 33.0405C118.682 32.6447 117.346 32.8656 116.291 33.218C115.341 33.5354 114.318 34.0924 113.678 34.9009C114.029 34.8195 114.349 34.6523 114.688 34.538C115.011 34.4293 115.402 34.4086 115.74 34.4086C115.548 34.6235 115.227 34.6797 114.991 34.8306C114.677 35.03 114.379 35.254 114.1 35.5004C113.661 35.8884 113.005 36.5423 112.905 37.1503C113.421 36.7971 113.968 36.1547 114.616 36.0489C114.024 36.7883 113.501 37.4943 113.207 38.4093C112.912 39.3247 112.907 40.3851 113.097 41.3212C113.198 41.8062 113.368 42.2744 113.601 42.7115C113.333 42.8265 113.068 42.9012 112.759 42.9061C112.13 42.916 111.385 42.5366 111.058 41.9914C110.657 41.3234 110.729 40.4705 110.772 39.7279C110.824 38.8328 110.956 37.9648 111.132 37.0864C111.303 36.2264 111.477 35.3669 111.695 34.5173C111.772 34.2129 111.815 33.8582 111.928 33.5664C112.022 33.3234 112.481 33.3146 112.694 33.2384C114.302 32.661 115.272 31.3288 115.999 29.8619C115.936 29.8568 115.873 29.8568 115.811 29.8619C115.591 29.9777 115.323 29.977 115.083 30.0269C114.806 30.085 114.55 30.2166 114.268 30.2529C113.689 30.3269 113.151 30.5858 112.577 30.706C112.865 29.9895 112.981 29.2018 113.196 28.4613C113.412 27.7164 113.553 26.9009 113.842 26.1833C113.591 26.224 113.376 26.4112 113.173 26.5517C112.911 26.7326 112.627 26.885 112.343 27.027C111.716 27.3399 111.138 27.7815 110.561 28.1754C110.122 28.4754 109.65 28.769 109.237 29.093C108.905 29.353 108.378 29.5783 108.125 29.9093H110.28C109.511 31.7237 108.911 33.6054 108.489 35.5304C108.067 37.454 107.82 39.5389 108.122 41.4969C108.255 42.3583 108.586 43.2145 109.132 43.898C109.369 44.1935 109.637 44.4839 109.927 44.7276C110.18 44.941 110.475 44.9861 110.772 45.0952C111.574 45.3885 112.663 45.0039 113.299 44.5035C113.646 44.2301 113.914 43.8954 114.124 43.5108C114.748 44.2849 115.605 44.8511 116.627 44.9258C116.878 44.9443 117.134 44.9306 117.386 44.9306C117.576 44.9306 117.749 44.8604 117.933 44.8604C118.16 44.8604 118.36 44.7509 118.578 44.7091C118.779 44.6703 118.948 44.664 119.138 44.5719C120.018 44.1432 120.69 43.6251 121.309 42.8705C121.943 42.0979 122.398 41.147 122.667 40.188C122.751 39.8851 122.808 39.5807 122.858 39.2726C123.206 39.6742 123.626 40.0278 124.007 40.3511C124.692 40.9329 125.822 41.9104 125.489 42.9294C125.41 43.172 125.134 43.689 124.833 43.689C124.636 43.689 124.482 43.7778 124.265 43.7397C124.05 43.7031 123.823 43.5015 123.615 43.5015C123.455 43.5015 123.269 43.2711 123.153 43.1797C122.934 43.0109 122.734 42.8185 122.557 42.6061C122.419 42.4393 122.264 42.2292 122.091 42.0953C121.915 41.9581 121.642 42.4737 121.552 42.5876C121.226 43.007 120.868 43.4035 120.451 43.7356C120.732 44.161 121.028 44.5811 121.381 44.9517C122.089 45.6955 123.083 46.2063 124.112 46.2995C125.721 46.4463 127.286 45.7055 128.163 44.3441C128.881 43.23 128.87 41.6153 128.154 40.5027C127.809 39.9657 127.236 39.5596 126.779 39.1206C126.317 38.6764 125.633 38.1031 125.706 37.39C125.768 36.786 126.276 36.5001 126.834 36.4853C127.226 36.475 127.639 36.4761 128.016 36.6044C128.411 36.7391 128.698 37.0582 129.075 37.1977C129.162 36.6754 129.615 36.1451 129.849 35.6776C129.995 35.3858 130.148 35.0947 130.315 34.8143C130.397 34.6741 130.71 34.3479 130.621 34.1737ZM120.24 39.3528C120.203 39.6469 120.184 40.03 119.982 40.2668C119.909 40.7095 119.493 41.1211 119.193 41.4285C118.826 41.8079 118.417 42.0539 117.887 42.1308C117.077 42.2481 116.325 41.8801 115.938 41.1681C115.426 40.2224 115.642 39.0913 115.968 38.1323C116.218 37.3963 116.828 36.3577 117.709 36.2823C117.252 35.9061 116.276 36.0448 115.74 36.0715C115.897 35.8987 116.18 35.7937 116.395 35.7227C116.682 35.631 116.976 35.5626 117.274 35.5182C117.991 35.4153 118.781 35.6295 119.339 36.09C119.943 36.59 120.244 37.2857 120.295 38.0583C120.323 38.4981 120.295 38.9171 120.24 39.3528Z" fill="#F2E54B"/>
</svg>
